<?xml version="1.0" encoding="UTF-8" standalone="no"?>
<!-- Created with Inkscape (http://www.inkscape.org/) -->

<svg
   width="36"
   height="36"
   viewBox="0 0 36 36"
   version="1.1"
   id="svg5"
   xml:space="preserve"
   inkscape:version="1.3 (1:1.3+202307231459+0e150ed6c4)"
   sodipodi:docname="edit.svg"
   inkscape:export-filename="..\beta-002\svg\amend-mbl.svg"
   inkscape:export-xdpi="96"
   inkscape:export-ydpi="96"
   xmlns:inkscape="http://www.inkscape.org/namespaces/inkscape"
   xmlns:sodipodi="http://sodipodi.sourceforge.net/DTD/sodipodi-0.dtd"
   xmlns="http://www.w3.org/2000/svg"
   xmlns:svg="http://www.w3.org/2000/svg"><sodipodi:namedview
     id="namedview7"
     pagecolor="#ffffff"
     bordercolor="#666666"
     borderopacity="1.0"
     inkscape:showpageshadow="2"
     inkscape:pageopacity="0.0"
     inkscape:pagecheckerboard="0"
     inkscape:deskcolor="#d1d1d1"
     inkscape:document-units="px"
     showgrid="true"
     showguides="true"
     inkscape:zoom="21.086546"
     inkscape:cx="13.065203"
     inkscape:cy="20.629267"
     inkscape:window-width="1920"
     inkscape:window-height="1007"
     inkscape:window-x="0"
     inkscape:window-y="0"
     inkscape:window-maximized="1"
     inkscape:current-layer="layer1"><inkscape:grid
       type="axonomgrid"
       id="grid139"
       units="px"
       spacingy="1"
       gridanglex="45"
       gridanglez="45"
       empcolor="#73ccdf"
       empopacity="0.20784314"
       empspacing="1"
       originx="1"
       originy="1"
       visible="true"
       enabled="true" /><inkscape:grid
       type="xygrid"
       id="grid141"
       originx="1"
       originy="1"
       dotted="true"
       empspacing="1"
       spacingy="1"
       spacingx="1"
       units="px"
       visible="true" /><sodipodi:guide
       position="2,23"
       orientation="1,0"
       id="guide143"
       inkscape:locked="false" /><sodipodi:guide
       position="9.5,34"
       orientation="0,-1"
       id="guide145"
       inkscape:locked="false" /><sodipodi:guide
       position="13,2"
       orientation="0,-1"
       id="guide197"
       inkscape:locked="false" /><sodipodi:guide
       position="34,24"
       orientation="1,0"
       id="guide199"
       inkscape:locked="false" /><sodipodi:guide
       position="31,33"
       orientation="0,-1"
       id="guide1164"
       inkscape:locked="false" /><sodipodi:guide
       position="60.5,3"
       orientation="0,-1"
       id="guide1166"
       inkscape:locked="false" /><sodipodi:guide
       position="33,-10"
       orientation="-1,0"
       id="guide1168"
       inkscape:locked="false" /><sodipodi:guide
       position="3,-12"
       orientation="1,0"
       id="guide1170"
       inkscape:locked="false" /><sodipodi:guide
       position="18,37"
       orientation="1,0"
       id="guide35717"
       inkscape:locked="false" /><sodipodi:guide
       position="-7,18"
       orientation="0,-1"
       id="guide30190"
       inkscape:locked="false" /><sodipodi:guide
       position="15,31"
       orientation="0,-1"
       id="guide42800"
       inkscape:locked="false" /></sodipodi:namedview><defs
     id="defs2" /><g
     inkscape:label="Layer 1"
     inkscape:groupmode="layer"
     id="layer1"><path
       d="m 44.474998,19.555073 h -8 c -1.1,0 -2,0.9 -2,2 v 16 c 0,1.1 0.9,2 2,2 h 12 c 1.1,0 2,-0.9 2,-2 v -12 l -6,-6 m 4,18 h -12 v -16 h 7 v 5 h 5 v 11 m -16,-14 v 18 h 16 v 2 h -16 c -1.1,0 -2,-0.9 -2,-2 v -18 h 2 m 6,6 v 2 h 8 v -2 h -8 m 0,4 v 2 h 5 v -2 z"
       id="path33865"
       style="fill:#000000;fill-opacity:0" /><path
       id="path23573-4-0"
       style="fill:#4f4f4f;fill-opacity:1;stroke-width:2;stroke-linecap:round;stroke-linejoin:round;paint-order:fill markers stroke"
       d="M 5,3 C 3.8920086,3 3,3.8920086 3,5 v 11 15 c 0,0.277 0.055311,0.53986 0.15625,0.779297 0.05047,0.119719 0.1118518,0.233476 0.1835938,0.339844 0.07174,0.106367 0.1537662,0.2065 0.2441406,0.296875 0.09038,0.09037 0.1905086,0.172398 0.296875,0.24414 0.1063664,0.07174 0.2201253,0.133125 0.3398437,0.183594 C 4.4601389,32.944687 4.7230018,33 5,33 h 6 2 3 V 30 H 11 6.5 C 6.2230021,30 6,29.777 6,29.5 V 6.5 C 6,6.2230021 6.2230021,6 6.5,6 H 16 v 8 h 8 v 7 l 3,-3 V 16.5 16 14 12 L 18,3 h -2 z" /><path
       d="m 32.775001,21.285 -1.470001,1.47 -3.06,-3.060001 1.47,-1.47 c 0.285,-0.3 0.78,-0.3 1.08,0 l 1.980001,1.98 c 0.3,0.3 0.3,0.795 0,1.080001 M 27.195,20.744999 30.255,23.805 21.06,33 H 18 v -3.06 z"
       style="fill:#ef8637;fill-opacity:1;stroke-width:1"
       id="path476-3-6" /><path
       id="rect1"
       style="fill:#4d4d4d;stroke-width:6;stroke-linecap:round;stroke-linejoin:round;paint-order:markers stroke fill"
       d="m 9,9 h 5 v 2 H 9 Z" /><path
       id="rect2"
       style="fill:#4d4d4d;stroke-width:6;stroke-linecap:round;stroke-linejoin:round;paint-order:markers stroke fill"
       d="m 9,14 h 5 v 2 H 9 Z" /><path
       id="rect3"
       style="fill:#4d4d4d;stroke-width:6;stroke-linecap:round;stroke-linejoin:round;paint-order:markers stroke fill"
       d="m 9,19 h 12 v 2 H 9 Z" /></g></svg>
